<?xml version="1.0" encoding="utf-8"?>
<!-- Generator: Adobe Illustrator 22.0.0, SVG Export Plug-In . SVG Version: 6.00 Build 0)  -->
<svg version="1.1" id="Layer_1" xmlns="http://www.w3.org/2000/svg" xmlns:xlink="http://www.w3.org/1999/xlink" x="0px" y="0px"
	 viewBox="0 0 216 216" style="enable-background:new 0 0 216 216;" xml:space="preserve">
<style type="text/css">
	.st0{fill:#FFFFFF;}
	.st1{fill:#808285;}
	.st2{fill:#939598;}
	.st3{fill:#5F5E5F;}
</style>
<circle class="st0" cx="108.8" cy="107.8" r="95.8"/>
<path class="st1" d="M108.5,19.5c48.8,0,88.5,39.7,88.5,88.5s-39.7,88.5-88.5,88.5S20,156.8,20,108S59.7,19.5,108.5,19.5 M108.5,8.5
	C53.5,8.5,9,53,9,108s44.5,99.5,99.5,99.5S208,163,208,108S163.5,8.5,108.5,8.5L108.5,8.5z"/>
<g>
	<g>
		<path class="st2" d="M128.8,7.3l-14.9,11.6v-0.9h-10.7v0.9L88.2,7.3c-16.2,16.2,0,34.4,0,34.4l14.9-12V31h10.7v-1.3l14.9,12
			C128.8,41.7,145,23.5,128.8,7.3z"/>
		<path class="st0" d="M128.8,7.3c16.2,16.2,0,34.4,0,34.4l-14.9-12V31h-10.7v-1.3l-14.9,12c0,0-16.2-18.2,0-34.4l14.9,11.6v-0.9
			h10.7v0.9L128.8,7.3 M129,4.6l-1.4,1.1l-13.2,10.2h-0.5h-10.7h-0.5L89.4,5.7L88,4.6l-1.2,1.2c-17.3,17.3-0.3,37-0.1,37.2l1.3,1.4
			l1.5-1.2L102.2,33h0.9h10.7h0.9l12.8,10.2l1.5,1.2l1.3-1.4c0.2-0.2,17.3-19.8-0.1-37.2L129,4.6L129,4.6z"/>
	</g>
	<g>
		<path d="M128.8,41.7c0,0,16.2-18.2,0-34.4l-17.9,13.9v6.3L128.8,41.7z"/>
		<path d="M88.2,41.7c0,0-16.2-18.2,0-34.4l17.9,13.9v6.3L88.2,41.7z"/>
		<path class="st0" d="M89.1,8.6l-0.6-0.5c-15.3,15.3,0,32.6,0,32.6l0.6-0.5C86.8,37.4,75.9,22.3,89.1,8.6z"/>
		<path class="st0" d="M128.1,8.6l0.6-0.5c15.3,15.3,0,32.6,0,32.6l-0.6-0.5C130.4,37.4,141.3,22.3,128.1,8.6z"/>
		<polygon class="st0" points="104.2,20.6 99.5,17.2 104.2,22.7 		"/>
		<polygon class="st0" points="106.6,24.8 98.8,31.9 106.6,26.6 		"/>
		<polygon class="st0" points="106.4,24 94.8,24.4 106.3,26.1 		"/>
		<polygon class="st0" points="112.8,20.6 117.5,17.2 112.8,22.7 		"/>
		<polygon class="st0" points="110.4,24.8 118.2,31.9 110.4,26.6 		"/>
		<polygon class="st0" points="110.6,24 122.2,24.4 110.7,26.1 		"/>
		<rect x="103.1" y="17.9" width="10.7" height="13.1"/>
		<rect x="103.9" y="18.3" class="st0" width="0.7" height="12.3"/>
		<rect x="112.4" y="18.3" class="st0" width="0.7" height="12.3"/>
	</g>
</g>
<path class="st0" d="M169.4,40.1L169.4,40.1l0.1-4.3L156.9,28l-44.8,51.6c-0.8-0.6-1.9-0.9-2.9-0.9c0,0,0,0-0.1,0
	c-1.1,0-2.1,0.3-2.9,0.9L61.4,28l-12.6,7.8v4.4l0.1,0c0.1,5.1,0.1,18,0,49h-1.5v12.2h1.5c-0.1,29.2-0.3,59.1-0.4,68.6h-1.1V182h0.3
	v8.7c0,4.4,3.6,8.1,8.1,8.1s8.1-3.6,8.1-8.1V182H64v-12.2h-1v-68.6h1V89.1h-1v-38l35.8,41.6l-1.3,2.5c-1.2,2.4-1.1,5.2,0.3,7.4
	c1.2,1.9,3.1,3.2,5.3,3.5v61.3h-2.4v12.2h0.5V190c0,4.4,3.6,8.1,8.1,8.1c4.4,0,8.1-3.6,8.1-8.1v-10.4h0.1v-12.2h-2.4V106
	c1.9-0.5,3.6-1.7,4.7-3.5c1.5-2.3,1.6-5.2,0.4-7.7l-1-2.1l36-41.8v38h-1v12.2h1v68.6h-1V182h0.3v8.7c0,4.4,3.6,8.1,8.1,8.1
	c4.4,0,8.1-3.6,8.1-8.1V182h0.3v-12.2h-1.1c-0.1-9.6-0.3-39.7-0.4-68.6h1.5V89.1h-1.5C169.3,58.1,169.4,45.2,169.4,40.1z
	 M57.6,176.4h-3.9v-1.1h3.9V176.4z M111.2,174.1h-3.9V173h3.9V174.1z M164.6,176.4h-3.9v-1.1h3.9V176.4z"/>
<g>
	<g>
		<polygon class="st2" points="59.7,178.6 51.7,178.6 51.7,184.1 59.7,184.1 59.7,178.6 		"/>
		<polyline class="st3" points="57.2,37 58,42.2 102.7,94.1 107.6,84.2 61,30.5 57.2,37 		"/>
		<g>
			<path class="st2" d="M61,30.5l-10.2,6.1c0,0,0,0,0,0c0.6,0-0.4,136.6-0.4,136.6H61V30.5L61,30.5z M50.8,36.6
				C50.8,36.6,50.8,36.6,50.8,36.6L50.8,36.6L50.8,36.6z"/>
			<polygon class="st0" points="54.5,34.4 54.5,172.2 56.9,172.2 56.9,33 			"/>
		</g>
		<path d="M49.3,91.1v8.2H62v-8.2H49.3z M59.6,97.7h-7.9v-5.1h7.9V97.7z"/>
		<polygon class="st0" points="61.6,91.9 56.9,91.6 61.6,91.6 		"/>
		<polygon class="st0" points="61.6,91.6 60.9,91.6 61.6,98.8 		"/>
		<path d="M49.3,171.8v8.2H62v-8.2H49.3z M59.6,178.4h-7.9v-5.1h7.9V178.4z"/>
		<polygon class="st0" points="61.6,172.6 56.9,172.2 61.6,172.2 		"/>
		<polygon class="st0" points="61.6,172.2 60.9,172.2 61.6,179.4 		"/>
		<path d="M55.7,196.8L55.7,196.8c-3.3,0-6.1-2.7-6.1-6.1v-9h12.1v9C61.7,194,59,196.8,55.7,196.8z"/>
		<polygon class="st0" points="61.2,182.4 57.7,182.1 61.2,182.1 		"/>
		<path class="st0" d="M60.7,182.1v8.1c0,3.2-2.4,5.7-5.5,6c0,0,0,0,0,0c3.3,0,6.1-2.7,6.1-6.1v-8.1H60.7z"/>
	</g>
	<g>
		<polygon class="st2" points="166.6,178.6 158.7,178.6 158.7,184.1 166.6,184.1 166.6,178.6 		"/>
		<polyline class="st3" points="161.1,37 160.3,42.2 115.7,94.1 110.7,84.2 157.3,30.5 161.1,37 		"/>
		<g>
			<path class="st2" d="M157.3,30.5v142.7H168c0,0-1-136.6-0.4-136.6c0,0,0,0,0,0L157.3,30.5L157.3,30.5z M167.6,36.6L167.6,36.6
				C167.6,36.6,167.6,36.6,167.6,36.6L167.6,36.6z"/>
			<polygon class="st0" points="163.8,34.4 163.8,172.2 161.5,172.2 161.5,33 			"/>
		</g>
		<path d="M156.3,91.1v8.2H169v-8.2H156.3z M166.6,97.7h-7.9v-5.1h7.9V97.7z"/>
		<polygon class="st0" points="168.5,91.9 163.9,91.6 168.5,91.6 		"/>
		<polygon class="st0" points="168.5,91.6 167.9,91.6 168.5,98.8 		"/>
		<path d="M156.3,171.8v8.2H169v-8.2H156.3z M166.6,178.4h-7.9v-5.1h7.9V178.4z"/>
		<polygon class="st0" points="168.5,172.6 163.9,172.2 168.5,172.2 		"/>
		<polygon class="st0" points="168.5,172.2 167.9,172.2 168.5,179.4 		"/>
		<path d="M162.7,196.8L162.7,196.8c-3.3,0-6.1-2.7-6.1-6.1v-9h12.1v9C168.7,194,166,196.8,162.7,196.8z"/>
		<polygon class="st0" points="168.2,182.4 164.6,182.1 168.2,182.1 		"/>
		<path class="st0" d="M167.7,182.1v8.1c0,3.2-2.4,5.7-5.5,6c0,0,0,0,0,0c3.3,0,6.1-2.7,6.1-6.1v-8.1H167.7z"/>
	</g>
	<g>
		<rect x="105.3" y="176.3" class="st3" width="8" height="5.4"/>
		<rect x="105.3" y="102.6" class="st3" width="8" height="67.3"/>
		<path d="M102.9,169.4v8.2h12.7v-8.2H102.9z M113.2,176.1h-7.9V171h7.9V176.1z"/>
		<path d="M109.4,196.1L109.4,196.1c-3.3,0-6.1-2.7-6.1-6.1v-9h12.1v9C115.5,193.4,112.8,196.1,109.4,196.1z"/>
	</g>
	<g>
		<path class="st2" d="M109.1,80.7c-1.2,0-2.4,0.6-3,1.9l-6.7,13.5c-1.9,3.8,0.9,8.2,5.1,8.2h8.8c4.4,0,7.2-4.6,5.3-8.5l-6.4-13.1
			C111.6,81.3,110.3,80.7,109.1,80.7L109.1,80.7z"/>
		<path class="st3" d="M106.3,100.8h5.2c2.5,0,4.2-2.9,3.1-5.5l-3.7-8.5c-0.7-1.6-2.8-1.7-3.6,0l-3.9,8.7
			C102.3,98,103.9,100.8,106.3,100.8z"/>
	</g>
</g>
<path class="st0" d="M98.2,145.8c10.4,6,27.6,3.7,27.6,3.7l-32.3,5.3C93.5,154.8,87.8,139.9,98.2,145.8z"/>
<g>
	<path class="st0" d="M144.8,52.7c-2.8,3.8-5.1,7.7-6.7,11.8c-3.3,8.1-5.5,13.1-6.6,14.9l-0.4,0.5c-0.2-0.6-0.4-1.1-0.5-1.4
		c-1.5-4.9-2.8-8.2-3.7-10.1c-1-1.9-2.4-3.7-4.4-5.4c-4.9-4.4-10.5-6.6-16.8-6.6c-5.8,0-10.6,1.6-14.4,4.8
		c-3.8,3.2-5.8,7.3-5.8,12.1c0,9.1,6.8,15.3,20.5,18.6l13.7,3.3c19.5,4.7,29.3,15,29.3,30.9c0,8.9-3.3,16.3-10,22.4
		c-6.7,6-14.9,9-24.8,9c-6.2,0-13.1-0.9-20.7-2.8l-9.5-2.4c-3.8-0.9-7-1.4-9.5-1.4c-3.3,0-6.7,1.1-10.2,3.2l-0.6-1.1
		c6.7-10.1,11.4-19.7,14.1-28.9l1.5,0.4c1.1,8.5,4.5,15.1,10.2,19.8c5.7,4.7,13.1,7.1,22.3,7.1c7.2,0,13-1.7,17.3-5
		c4.3-3.4,6.4-7.9,6.4-13.5c0-6.5-3-12-8.9-16.2c-4.3-3-13-5.8-26.3-8.4c-10.2-2-17.6-5.3-22.2-10c-4.6-4.7-6.9-11.1-6.9-19.4
		c0-8.5,3.1-15.5,9.2-20.8c6.1-5.3,14.1-8,24-8c6.3,0,13.7,1.1,22.1,3.4c3.9,1.1,6.9,1.6,8.8,1.6c2.6,0,5.5-0.9,8.7-2.8L144.8,52.7z
		 M144.8,104.5c7.4,5.6,11,13.2,11,22.9c0,10.3-4,19.1-12,26.2c-8,7.2-17.7,10.8-29.2,10.8c-5.8,0-11.1-0.6-15.8-1.8l-13-3.2
		c-3-0.8-6.3-1.1-9.7-1.1c-3.1,0-5.9,0.6-8.5,1.9l-1-2.4c2.8-1.3,5.7-1.9,8.6-1.9c3.2,0,6.9,0.5,11.1,1.5l12.5,3
		c5,1.2,10.2,1.8,15.7,1.8c10.8,0,20-3.4,27.6-10.3c7.6-6.9,11.4-15.2,11.4-25c0-8.3-2.9-15.5-8.8-21.7V104.5z M76.9,101.6l2.8,1.5
		c1.8,3.2,7,5.8,15.7,8l13.1,3.2c8.9,2.2,14.8,4.1,17.7,5.7c2.9,1.6,5,4,6.3,7.3l-0.6,0.3c-2.4-2.8-5.1-4.9-7.9-6.2
		c-2.8-1.3-8.3-2.9-16.3-4.8c-11.7-2.7-19.5-5-23.5-7C80,107.7,77.6,105,76.9,101.6z M87,127.8c2,9.7,7.4,16.6,16.1,20.7v0.6
		c-10.1-2.9-16.1-9.9-18.3-20.9L87,127.8z M149.8,56.1l-0.7,1.2c-2.2,3.7-4.1,7.3-5.7,10.7c-3.8,8-5.9,12.4-6.4,13.3l-0.4,0.6
		l-1.9-0.8l0.3-0.7c1.6-3.6,3.8-8.2,6.8-14l5.5-10.7l0.4-0.6L149.8,56.1z"/>
</g>
<polygon class="st0" points="142.9,51.2 149.8,56.1 137,81.4 130.1,78.9 133,62.1 "/>
<polygon class="st0" points="100.6,87.1 111.4,92.8 90.9,91.7 81,79.3 82.1,68.1 86,58 97,52.3 120.1,53.3 132.7,60.9 131.2,81.9 
	124.5,70.2 119.8,65.8 116.7,64 113.3,62.2 108.7,61.3 104.1,61.1 99.9,62.7 95,64.6 92.5,67.7 90.7,73.3 91.1,78.7 94.3,83.1 
	97.5,85.5 "/>
<polygon class="st0" points="104.3,106.2 117.2,110 117,116.8 103.5,113.5 "/>
<polygon class="st0" points="104.3,154.8 105,162.2 115.7,162 116.5,152.7 "/>
<path class="st0" d="M126.5,53.5c0,0,11.3,1.2,16.4-3.1l6.9,4.3l-4.5,8l-12-3.1L126.5,53.5z"/>
<path class="st2" d="M143.8,51.6c-2.8,3.8-5.1,7.7-6.7,11.8c-3.3,8.1-5.5,13.1-6.6,14.9l-0.4,0.5c-0.2-0.6-0.4-1.1-0.5-1.4
	c-1.5-4.9-2.8-8.2-3.7-10.1c-1-1.9-2.4-3.7-4.4-5.4c-4.9-4.4-10.5-6.6-16.8-6.6c-5.8,0-10.6,1.6-14.4,4.8c-3.8,3.2-5.8,7.3-5.8,12.1
	c0,9.1,6.8,15.3,20.5,18.6l13.7,3.3c19.5,4.7,29.3,15,29.3,30.9c0,8.9-3.3,16.3-10,22.4c-6.7,6-14.9,9-24.8,9
	c-6.2,0-13.1-0.9-20.7-2.8l-9.5-2.4c-3.8-0.9-7-1.4-9.5-1.4c-3.3,0-6.7,1.1-10.2,3.2l-0.6-1.1c6.7-10.1,11.4-19.7,14.1-28.9l1.5,0.4
	c1.1,8.5,4.5,15.1,10.2,19.8c5.7,4.7,13.1,7.1,22.3,7.1c7.2,0,13-1.7,17.3-5c4.3-3.4,6.4-7.9,6.4-13.5c0-6.5-3-12-8.9-16.2
	c-4.3-3-13-5.8-26.3-8.4c-10.2-2-17.6-5.3-22.2-10c-4.6-4.7-6.9-11.1-6.9-19.4c0-8.5,3.1-15.5,9.2-20.8c6.1-5.3,14.1-8,24-8
	c6.3,0,13.7,1.1,22.1,3.4c3.9,1.1,6.9,1.6,8.8,1.6c2.6,0,5.5-0.9,8.7-2.8L143.8,51.6z M143.8,103.4c7.4,5.6,11,13.2,11,22.9
	c0,10.3-4,19.1-12,26.2c-8,7.2-17.7,10.8-29.2,10.8c-5.8,0-11.1-0.6-15.8-1.8l-13-3.2c-3-0.8-6.3-1.1-9.7-1.1
	c-3.1,0-5.9,0.6-8.5,1.9l-1-2.4c2.8-1.3,5.7-1.9,8.6-1.9c3.2,0,6.9,0.5,11.1,1.5l12.5,3c5,1.2,10.2,1.8,15.7,1.8
	c10.8,0,20-3.4,27.6-10.3c7.6-6.9,11.4-15.2,11.4-25c0-8.3-2.9-15.5-8.8-21.7V103.4z M75.9,100.5l2.8,1.5c1.8,3.2,7,5.8,15.7,8
	l13.1,3.2c8.9,2.2,14.8,4.1,17.7,5.7c2.9,1.6,5,4,6.3,7.3l-0.6,0.3c-2.4-2.8-5.1-4.9-7.9-6.2c-2.8-1.3-8.3-2.9-16.3-4.8
	c-11.7-2.7-19.5-5-23.5-7C79,106.6,76.6,103.9,75.9,100.5z M86,126.8c2,9.7,7.4,16.6,16.1,20.7v0.6c-10.1-2.9-16.1-9.9-18.3-20.9
	L86,126.8z M106,61.7c-4.1,0-7.5,1.2-10.2,3.6c-2.7,2.4-4.1,5.4-4.1,9.1c0,4,2.7,8.1,8.2,12.3l0.6,0.4c0,0-11.1-2.6-11.1-13.2
	c0-4.2,1.5-7.7,4.5-10.3c3-2.6,7-4,11.8-4c4.7,0,8.7,1,12.2,3c3.5,2,5.8,5.6,7.4,9.1C125.5,71.7,118.6,61.7,106,61.7z M148.8,55
	l-0.7,1.2c-2.2,3.7-4.1,7.3-5.7,10.7c-3.8,8-5.9,12.4-6.4,13.3l-0.4,0.6l-1.9-0.8l0.3-0.7c1.6-3.6,3.8-8.2,6.8-14l5.5-10.7l0.4-0.6
	L148.8,55z"/>
<path class="st0" d="M70.8,78.3c0,0-1.8-11.3,4.1-19.1s16-10.9,27.9-9.4"/>
<polygon class="st0" points="99.6,88.3 124.6,94.9 124,102.4 97.8,94 "/>
<path d="M143.8,51.6c-2.8,3.8-5.1,7.7-6.7,11.8c-3.3,8.1-5.5,13.1-6.6,14.9l-0.4,0.5c-0.2-0.6-0.4-1.1-0.5-1.4
	c-1.5-4.9-2.8-8.2-3.7-10.1c-1-1.9-2.4-3.7-4.4-5.4c-4.9-4.4-10.5-6.6-16.8-6.6c-5.8,0-10.6,1.6-14.4,4.8c-3.8,3.2-5.8,7.3-5.8,12.1
	c0,9.1,6.8,15.3,20.5,18.6l13.7,3.3c19.5,4.7,29.3,15,29.3,30.9c0,8.9-3.3,16.3-10,22.4c-6.7,6-14.9,9-24.8,9
	c-6.2,0-13.1-0.9-20.7-2.8l-9.5-2.4c-3.8-0.9-7-1.4-9.5-1.4c-3.3,0-6.7,1.1-10.2,3.2l-0.6-1.1c6.7-10.1,11.4-19.7,14.1-28.9l1.5,0.4
	c1.1,8.5,4.5,15.1,10.2,19.8c5.7,4.7,13.1,7.1,22.3,7.1c7.2,0,13-1.7,17.3-5c4.3-3.4,6.4-7.9,6.4-13.5c0-6.5-3-12-8.9-16.2
	c-4.3-3-13-5.8-26.3-8.4c-10.2-2-17.6-5.3-22.2-10c-4.6-4.7-6.9-11.1-6.9-19.4c0-8.5,3.1-15.5,9.2-20.8c6.1-5.3,14.1-8,24-8
	c6.3,0,13.7,1.1,22.1,3.4c3.9,1.1,6.9,1.6,8.8,1.6c2.6,0,5.5-0.9,8.7-2.8L143.8,51.6z"/>
</svg>
